<svg width="14" height="10" viewBox="0 0 14 10" fill="none" xmlns="http://www.w3.org/2000/svg">
<path d="M6.91354 0.30701C6.64228 0.340836 6.38576 0.48257 6.17932 0.712441L0.63513 6.85943C0.356129 7.14862 0.179894 7.57194 0.146384 8.03236C0.113052 8.49282 0.225388 8.95087 0.45798 9.30225C0.690388 9.65361 1.02315 9.86799 1.37989 9.89634C1.73679 9.92469 2.08724 9.76461 2.3513 9.45256L7.03736 4.25525L11.7234 9.45256C11.9875 9.76438 12.338 9.92446 12.6948 9.8961C13.0516 9.868 13.3843 9.65361 13.6167 9.30225C13.8493 8.95089 13.9617 8.49259 13.9283 8.03211C13.8948 7.57165 13.7186 7.1486 13.4396 6.85943L7.89541 0.712441C7.62415 0.410629 7.26967 0.264603 6.91354 0.30701Z" fill="#CBB17A"/>
</svg>
