<svg width="18" height="16" viewBox="0 0 18 16" fill="none" xmlns="http://www.w3.org/2000/svg">
<path d="M16.4926 3.82147C16.4926 3.82147 16.6845 4.05743 17.0684 4.52934C17.4524 5.00126 17.6443 5.79391 17.6443 6.9073C17.6443 8.02069 17.2604 9.0493 16.4926 9.99313C15.7247 10.937 14.6817 11.6824 13.3635 12.2295C12.0454 12.7766 10.6056 13.0502 9.04434 13.0502C8.59642 13.0502 8.13251 13.0246 7.6526 12.9734C6.38563 14.0932 4.9139 14.8674 3.23742 15.2961C2.92387 15.3857 2.55914 15.4561 2.14322 15.5073C2.03444 15.5201 1.93686 15.4913 1.85047 15.4209C1.76409 15.3505 1.7081 15.2577 1.68251 15.1426V15.133C1.66331 15.1074 1.66171 15.069 1.67771 15.0178C1.6937 14.9666 1.7001 14.9346 1.6969 14.9218C1.6937 14.909 1.7081 14.8786 1.7401 14.8306C1.77209 14.7826 1.79129 14.7538 1.79768 14.7442C1.80408 14.7346 1.82648 14.7074 1.86487 14.6627C1.90326 14.6179 1.92886 14.5891 1.94166 14.5763C1.98645 14.5251 2.08563 14.4147 2.2392 14.2451C2.39277 14.0756 2.50315 13.954 2.57034 13.8804C2.63753 13.8068 2.73671 13.6804 2.86789 13.5013C2.99906 13.3221 3.10304 13.1589 3.17983 13.0118C3.25661 12.8646 3.343 12.6758 3.43898 12.4455C3.53496 12.2151 3.61815 11.972 3.68853 11.716C2.68392 11.1465 1.89207 10.4426 1.31297 9.6044C0.733882 8.76615 0.444336 7.86712 0.444336 6.9073C0.444336 6.07546 0.671494 5.2804 1.12581 4.52214C1.58012 3.76389 2.19121 3.10961 2.95907 2.55931C3.72693 2.00901 4.64196 1.57229 5.70416 1.24915C6.76636 0.926013 7.87975 0.764443 9.04434 0.764443C10.6056 0.764443 12.0454 1.03799 13.3635 1.58509C14.6817 2.13219 15.7247 2.87765 16.4926 3.82147Z" fill="#2D9B8E"/>
</svg>
