<svg width="16" height="16" viewBox="0 0 16 16" fill="none" xmlns="http://www.w3.org/2000/svg">
<path d="M12.1363 9.13546C12.9873 9.13546 13.712 9.43461 14.3103 10.0329C14.9086 10.6312 15.2077 11.3559 15.2077 12.2069C15.2077 13.0579 14.9086 13.7826 14.3103 14.3809C13.712 14.9792 12.9873 15.2783 12.1363 15.2783C11.2852 15.2783 10.5606 14.9792 9.96228 14.3809C9.36399 13.7826 9.06484 13.0579 9.06484 12.2069C9.06484 12.1301 9.07124 12.0213 9.08404 11.8806L5.62868 10.1529C5.03999 10.7032 4.34252 10.9783 3.53627 10.9783C2.68523 10.9783 1.96057 10.6792 1.36228 10.0809C0.763988 9.4826 0.464844 8.75793 0.464844 7.90689C0.464844 7.05585 0.763988 6.33119 1.36228 5.7329C1.96057 5.13461 2.68523 4.83546 3.53627 4.83546C4.34252 4.83546 5.03999 5.11061 5.62868 5.66091L9.08404 3.93323C9.07124 3.79246 9.06484 3.68368 9.06484 3.60689C9.06484 2.75585 9.36399 2.03119 9.96228 1.4329C10.5606 0.834608 11.2852 0.535463 12.1363 0.535463C12.9873 0.535463 13.712 0.834608 14.3103 1.4329C14.9086 2.03119 15.2077 2.75585 15.2077 3.60689C15.2077 4.45793 14.9086 5.1826 14.3103 5.78089C13.712 6.37918 12.9873 6.67832 12.1363 6.67832C11.33 6.67832 10.6326 6.40317 10.0439 5.85287L6.5885 7.58055C6.6013 7.72133 6.6077 7.83011 6.6077 7.90689C6.6077 7.98368 6.6013 8.09246 6.5885 8.23323L10.0439 9.96091C10.6326 9.41061 11.33 9.13546 12.1363 9.13546Z" fill="#2D9B8E"/>
</svg>
