<svg width="22" height="34" viewBox="0 0 22 34" fill="none" xmlns="http://www.w3.org/2000/svg">
<path d="M13.4861 9.22822V8.03772C13.4856 7.59132 13.308 7.16337 12.9923 6.84777C12.6766 6.53216 12.2486 6.35469 11.8022 6.35427H10.4123V5.17419H10.9865C11.1245 5.17419 11.2569 5.11935 11.3546 5.02173C11.4522 4.9241 11.507 4.7917 11.507 4.65364V1.99104C11.5066 1.57589 11.3415 1.17786 11.0479 0.884303C10.7544 0.590747 10.3564 0.425645 9.94121 0.425232H7.4051C6.98995 0.425645 6.59192 0.590747 6.29836 0.884303C6.0048 1.17786 5.8397 1.57589 5.83929 1.99104V4.65364C5.83929 4.7917 5.89413 4.9241 5.99175 5.02173C6.08938 5.11935 6.22178 5.17419 6.35984 5.17419H6.93348V6.35427H5.54362C5.09731 6.35482 4.66944 6.53236 4.35385 6.84795C4.03826 7.16354 3.86072 7.59141 3.86017 8.03772V9.22718C1.97214 9.44268 0.500029 11.0481 0.499509 12.9923C0.497947 19.1478 0.496385 10.8976 0.495865 30.2459C0.496691 31.171 0.864484 32.058 1.51854 32.7122C2.17259 33.3665 3.05947 33.7345 3.98458 33.7356L13.3565 33.7377H13.3576C13.8157 33.738 14.2695 33.6479 14.6928 33.4727C15.1162 33.2975 15.5009 33.0406 15.8249 32.7167C16.1489 32.3927 16.4059 32.0081 16.5811 31.5847C16.7564 31.1614 16.8465 30.7077 16.8463 30.2495L16.8499 12.9959C16.8504 11.0205 15.3575 9.438 13.4861 9.22822ZM13.3576 32.6966H13.3565L3.98458 32.6945C3.3355 32.6937 2.71326 32.4354 2.2544 31.9763C1.79553 31.5173 1.53751 30.8949 1.53696 30.2459L1.53748 27.0539H15.8057V30.249C15.8058 30.5705 15.7426 30.8889 15.6196 31.1859C15.4966 31.483 15.3163 31.7529 15.0889 31.9802C14.8616 32.2075 14.5916 32.3878 14.2945 32.5107C13.9975 32.6336 13.6791 32.6968 13.3576 32.6966ZM4.98767 21.4684C4.98819 19.4367 6.64145 17.7845 8.67211 17.7845H8.67315C10.7101 17.7845 12.3576 19.4476 12.3571 21.4699C12.3573 21.9538 12.2621 22.433 12.077 22.8801C11.8919 23.3272 11.6205 23.7334 11.2783 24.0755C10.9362 24.4176 10.5299 24.689 10.0828 24.874C9.6357 25.059 9.15651 25.1541 8.67263 25.1539H8.67159C6.63208 25.1533 4.98767 23.4907 4.98767 21.4684ZM15.8078 15.8876L1.53956 15.8824V12.9928C1.54067 12.2633 1.83101 11.5641 2.34693 11.0484C2.86284 10.5326 3.56222 10.2426 4.2917 10.2417L13.0577 10.2433C13.4191 10.2433 13.7769 10.3145 14.1107 10.4528C14.4445 10.5911 14.7478 10.7939 15.0032 11.0495C15.2587 11.305 15.4612 11.6084 15.5994 11.9423C15.7375 12.2762 15.8085 12.6341 15.8083 12.9954L15.8078 15.8876Z" fill="#26524E"/>
<path d="M8.67316 24.1128C9.15133 24.1129 9.62058 23.9833 10.0309 23.7377C10.4411 23.4921 10.7771 23.1397 11.0028 22.7182C11.2286 22.2967 11.3357 21.8218 11.3127 21.3442C11.2898 20.8665 11.1376 20.4041 10.8725 20.0062L7.20938 23.6677C7.64196 23.958 8.15116 24.1129 8.67212 24.1128H8.67316ZM8.67316 18.8256C7.97226 18.8262 7.30027 19.1049 6.80461 19.6005C6.30896 20.0961 6.03012 20.768 6.0293 21.4689C6.0293 22.0092 6.19379 22.5121 6.47332 22.9311L10.1359 19.2701C9.70322 18.9801 9.19405 18.8253 8.67316 18.8256ZM12.646 2.22893C12.8552 2.4486 13.205 2.42257 13.38 2.22893C13.5554 2.08786 13.6163 1.73129 13.38 1.49496C13.3318 1.44676 13.2745 1.40853 13.2116 1.38245C13.1486 1.35637 13.0811 1.34294 13.013 1.34294C12.9448 1.34294 12.8773 1.35637 12.8144 1.38245C12.7514 1.40853 12.6942 1.44676 12.646 1.49496C12.394 1.7469 12.4935 2.10608 12.646 2.22893ZM17.7213 0.692792C17.4402 0.734436 17.2372 0.99471 17.2789 1.28101C17.3153 1.54129 17.5391 1.72868 17.7942 1.72868C18.1091 1.72868 18.3496 1.44915 18.3095 1.14046C18.2901 1.00345 18.2175 0.879609 18.1074 0.795804C17.9973 0.711998 17.8586 0.674984 17.7213 0.692792ZM16.2013 1.94783C16.5163 1.94783 16.7567 1.66778 16.7167 1.35961C16.6973 1.2226 16.6246 1.09876 16.5145 1.01495C16.4044 0.931148 16.2657 0.894135 16.1284 0.911943C15.8421 0.953587 15.6443 1.21386 15.6808 1.50016C15.7172 1.76044 15.9411 1.94783 16.2013 1.94783ZM14.6032 2.16646C14.678 2.16715 14.7519 2.15161 14.8201 2.12092C14.8882 2.09022 14.9489 2.04511 14.9979 1.98869C15.0469 1.93227 15.083 1.86588 15.1039 1.79412C15.1247 1.72236 15.1297 1.64693 15.1186 1.57304C15.1098 1.5055 15.0877 1.44037 15.0536 1.38145C15.0194 1.32253 14.9739 1.27098 14.9197 1.22981C14.8654 1.18863 14.8035 1.15866 14.7376 1.14162C14.6716 1.12459 14.603 1.12083 14.5356 1.13057C14.2493 1.16701 14.0515 1.43249 14.0879 1.71879C14.1243 1.97907 14.3482 2.16646 14.6032 2.16646ZM19.3194 0.479368V0.474162C19.0331 0.515806 18.8353 0.77608 18.8717 1.06238C18.9082 1.32266 19.132 1.51526 19.3871 1.51526C19.6978 1.51526 19.9482 1.23677 19.9024 0.921834C19.8938 0.854236 19.8718 0.789035 19.8377 0.730041C19.8036 0.671047 19.7581 0.619444 19.7038 0.578248C19.6495 0.537051 19.5875 0.507089 19.5215 0.490111C19.4555 0.473133 19.3868 0.469481 19.3194 0.479368ZM20.6156 1.14046C20.6636 1.18989 20.7211 1.22918 20.7845 1.25601C20.848 1.28284 20.9162 1.29667 20.9852 1.29667C21.0541 1.29667 21.1223 1.28284 21.1858 1.25601C21.2493 1.22918 21.3067 1.18989 21.3547 1.14046C21.5656 0.929642 21.5401 0.591286 21.3547 0.406491C21.1569 0.213888 20.8082 0.213888 20.6156 0.406491C20.5672 0.454579 20.5288 0.511759 20.5026 0.57474C20.4764 0.637722 20.4629 0.705263 20.4629 0.773477C20.4629 0.841692 20.4764 0.909233 20.5026 0.972215C20.5288 1.0352 20.5672 1.09238 20.6156 1.14046ZM13.38 4.11852C13.6069 3.89052 13.5674 3.53446 13.38 3.38455C13.2056 3.18986 12.8563 3.17424 12.646 3.38455C12.4883 3.51104 12.3946 3.86605 12.646 4.11852C12.7435 4.21547 12.8754 4.26989 13.013 4.26989C13.1505 4.26989 13.2824 4.21547 13.38 4.11852ZM16.1337 4.6854C16.4887 4.6854 16.6813 4.48863 16.7167 4.23772C16.7531 3.95142 16.5501 3.69115 16.269 3.6495C15.9827 3.61307 15.7224 3.81608 15.6808 4.10238C15.6443 4.38348 15.8474 4.64896 16.1337 4.6854ZM17.8619 3.86293C17.7941 3.85329 17.7251 3.85728 17.6588 3.87467C17.5926 3.89206 17.5305 3.92249 17.4762 3.96419C17.4219 4.00589 17.3765 4.05801 17.3426 4.11749C17.3087 4.17698 17.287 4.24263 17.2789 4.3106C17.269 4.38402 17.2749 4.45871 17.2963 4.52965C17.3177 4.60058 17.354 4.66611 17.4028 4.72183C17.4517 4.77756 17.5119 4.82219 17.5794 4.85271C17.6469 4.88324 17.7201 4.89896 17.7942 4.89882C18.0493 4.89882 18.2731 4.70622 18.3095 4.44594C18.346 4.15964 18.143 3.89937 17.8619 3.86293ZM14.5356 4.47197C14.7797 4.51986 15.0806 4.33871 15.1238 4.0243C15.1602 3.7432 14.9572 3.47772 14.6761 3.44129H14.6709C14.3898 3.40485 14.1243 3.60786 14.0879 3.88896C14.0515 4.17526 14.2545 4.43553 14.5356 4.47197ZM19.4548 4.07167C19.387 4.06253 19.3182 4.06689 19.2522 4.08448C19.1861 4.10207 19.1243 4.13255 19.0701 4.17416C19.0159 4.21577 18.9705 4.26769 18.9364 4.32693C18.9024 4.38618 18.8804 4.45157 18.8717 4.51934C18.8353 4.80564 19.0331 5.06592 19.3194 5.10235C19.5354 5.15753 19.8639 4.97482 19.9024 4.65468C19.9117 4.58695 19.9074 4.51805 19.8899 4.45197C19.8724 4.3859 19.8419 4.32395 19.8003 4.26973C19.7586 4.21551 19.7067 4.17008 19.6474 4.13609C19.588 4.10209 19.5226 4.08019 19.4548 4.07167ZM21.3547 4.42512C21.1569 4.23252 20.8082 4.23252 20.6156 4.42512C20.3917 4.6729 20.4355 4.98471 20.6156 5.1643C20.8233 5.37252 21.1595 5.3595 21.3547 5.1643C21.5463 4.97378 21.5614 4.65364 21.3547 4.42512Z" fill="#26524E"/>
</svg>
