<svg width="18" height="16" viewBox="0 0 18 16" fill="none" xmlns="http://www.w3.org/2000/svg">
<path d="M9.46959 15.106C9.35441 15.2212 9.21364 15.2788 9.04727 15.2788C8.8809 15.2788 8.74012 15.2212 8.62494 15.106L2.63566 9.32792C2.57167 9.27673 2.48369 9.19354 2.37171 9.07836C2.25973 8.96318 2.08216 8.75362 1.83901 8.44968C1.59585 8.14574 1.37829 7.83379 1.18633 7.51385C0.994364 7.19391 0.823196 6.80678 0.672824 6.35247C0.522452 5.89815 0.447266 5.45664 0.447266 5.02792C0.447266 3.62018 0.85359 2.51958 1.66624 1.72613C2.47889 0.932678 3.60188 0.535952 5.03521 0.535952C5.43194 0.535952 5.83666 0.604739 6.24939 0.742313C6.66211 0.879888 7.04604 1.06545 7.40117 1.29901C7.75631 1.53257 8.06185 1.75173 8.3178 1.95649C8.57375 2.16125 8.81691 2.37881 9.04727 2.60917C9.27762 2.37881 9.52078 2.16125 9.77673 1.95649C10.0327 1.75173 10.3382 1.53257 10.6934 1.29901C11.0485 1.06545 11.4324 0.879888 11.8451 0.742313C12.2579 0.604739 12.6626 0.535952 13.0593 0.535952C14.4927 0.535952 15.6156 0.932678 16.4283 1.72613C17.2409 2.51958 17.6473 3.62018 17.6473 5.02792C17.6473 6.44205 16.9146 7.88178 15.4493 9.34711L9.46959 15.106Z" fill="#2D9B8E"/>
</svg>
