<svg width="20" height="34" viewBox="0 0 20 34" fill="none" xmlns="http://www.w3.org/2000/svg">
<path d="M9.24 29.54H10.76V32.58C10.76 32.998 10.418 33.34 10 33.34C9.582 33.34 9.24 32.998 9.24 32.58V29.54ZM19.12 13.58C19.12 17.684 16.384 21.18 12.66 22.32V17.76C12.66 16.544 11.862 15.556 10.76 15.214V12.82C10.76 12.402 10.418 12.06 10 12.06C9.582 12.06 9.24 12.402 9.24 12.82V15.214C8.138 15.556 7.34 16.544 7.34 17.76V22.32C3.616 21.18 0.880005 17.684 0.880005 13.58C0.880005 12.668 1.032 11.756 1.374 10.92L3.54 5.144C4.528 2.484 7.15 0.660004 10 0.660004C12.85 0.660004 15.472 2.484 16.46 5.144L18.626 10.92C18.968 11.756 19.12 12.668 19.12 13.58ZM14.94 7.88C14.94 5.144 12.736 2.94 10 2.94C7.264 2.94 5.06 5.144 5.06 7.88C5.06 8.298 5.402 8.64 5.82 8.64C6.238 8.64 6.58 8.298 6.58 7.88C6.58 5.98 8.1 4.46 10 4.46C11.9 4.46 13.42 5.98 13.42 7.88C13.42 8.298 13.762 8.64 14.18 8.64C14.598 8.64 14.94 8.298 14.94 7.88ZM11.9 25.74H8.1C7.454 25.74 6.96 26.234 6.96 26.88C6.96 27.488 7.454 28.02 8.1 28.02H11.9C12.546 28.02 13.04 27.488 13.04 26.88C13.04 26.234 12.546 25.74 11.9 25.74ZM10 16.62C9.354 16.62 8.86 17.114 8.86 17.76V24.22H11.14V17.76C11.14 17.114 10.646 16.62 10 16.62Z" fill="#26524E"/>
</svg>
