<svg width="119" height="119" viewBox="0 0 119 119" fill="none" xmlns="http://www.w3.org/2000/svg">
<rect width="119" height="119" rx="59.5" fill="#EAF5F4"/>
<g clip-path="url(#clip0_2050_1874)">
<path d="M33.6406 87.9999H63.3906C64.2968 87.9999 65.0312 87.2655 65.0312 86.3593V84.6093C65.0312 82.797 63.5623 81.3281 61.75 81.3281V79.3665C61.75 76.7693 59.6369 74.6562 57.0397 74.6562H39.9916C37.3944 74.6562 35.2812 76.7693 35.2812 79.3665V81.3281C33.4689 81.3281 32 82.797 32 84.6093V86.3593C32 87.265 32.7349 87.9999 33.6406 87.9999ZM52.5334 68.1313C53.6239 69.5783 55.6814 69.8676 57.1285 68.7768C58.5759 67.6865 58.8648 65.6289 57.7744 64.1813L47.9009 51.079C46.8101 49.6315 44.753 49.3427 43.3059 50.433C41.8584 51.5238 41.5691 53.5809 42.6599 55.0285L52.5334 68.1313ZM76.1178 50.3588C77.2086 51.8058 79.2659 52.0951 80.7133 51.0043C82.1604 49.9139 82.4497 47.8568 81.3589 46.4092L71.4852 33.307C70.3949 31.8595 68.3373 31.5702 66.8902 32.661C65.4432 33.7518 65.1539 35.8089 66.2447 37.2565L76.1178 50.3588ZM68.921 59.8906C71.3459 58.0632 73.1665 55.7941 74.305 53.405L62.8164 38.1592C60.206 38.5954 57.5232 39.7194 55.0978 41.5472C52.6727 43.3745 50.8522 45.6436 49.7136 48.0323L61.2024 63.279C63.8127 62.8428 66.4955 61.7182 68.921 59.8906ZM73.351 60.3178C72.5871 61.0962 71.7825 61.8427 70.8956 62.5113C70.0083 63.1796 69.0687 63.7472 68.1104 64.2673L70.2496 67.1064L75.4907 63.1573L73.351 60.3178ZM77.4654 65.7776L72.2244 69.7267L82.098 82.8295C83.1888 84.2769 85.2459 84.5658 86.6931 83.4754C88.1405 82.3846 88.4294 80.3275 87.339 78.8799L77.4654 65.7776Z" fill="#2D9B8E"/>
</g>
<defs>
<clipPath id="clip0_2050_1874">
<rect width="56" height="56" fill="white" transform="translate(32 32)"/>
</clipPath>
</defs>
</svg>
